<svg version="1.2" xmlns="http://www.w3.org/2000/svg" viewBox="0 0 16 13" width="16" height="13"><style>.a{fill:#fff}</style><path class="a" d="m8.5 12.6q1.3 0 2.2-0.3 0.9-0.3 1.4-0.7 0.5-0.5 0.5-1.2 0-0.4-0.1-0.7-0.2-0.3-0.4-0.5-0.1-0.2-0.3-0.4-0.1-0.2-0.1-0.5 0-0.2 0.2-0.4 0.2-0.2 0.6-0.4 0.4-0.2 0.9-0.4 0.4-0.2 0.8-0.5 0.4-0.3 0.6-0.8 0.3-0.4 0.3-1 0-0.9-0.5-1.6-0.4-0.7-1.2-1.3-0.8-0.5-2-0.8-1.1-0.3-2.4-0.3-1.8 0-3.3 0.5-1.5 0.4-2.5 1.2-1.1 0.8-1.7 1.9-0.6 1.1-0.6 2.4 0 1.3 0.6 2.4 0.5 1 1.5 1.8 1 0.8 2.4 1.2 1.4 0.4 3.1 0.4zm-0.1-2.3q-0.4 0-0.8-0.2-0.3-0.2-0.5-0.5-0.3-0.4-0.3-0.8 0-0.4 0.3-0.8 0.2-0.4 0.5-0.6 0.4-0.2 0.8-0.2 0.4 0 0.8 0.2 0.3 0.2 0.5 0.6 0.3 0.4 0.3 0.8 0 0.4-0.3 0.8-0.2 0.3-0.5 0.5-0.4 0.2-0.8 0.2zm-4.7-2.8q-0.4 0-0.7-0.3-0.3-0.2-0.3-0.7 0-0.3 0.3-0.6 0.3-0.3 0.7-0.3 0.4 0 0.7 0.3 0.3 0.2 0.3 0.6 0 0.5-0.3 0.7-0.3 0.3-0.7 0.3zm2.3-2q-0.6 0-0.9-0.4-0.4-0.4-0.4-0.9 0-0.5 0.4-0.8 0.3-0.4 0.9-0.4 0.5 0 0.8 0.4 0.4 0.3 0.4 0.8 0 0.5-0.4 0.9-0.3 0.4-0.8 0.4zm3.1-1q-0.4 0-0.7-0.3-0.3-0.2-0.3-0.7 0-0.4 0.3-0.7 0.3-0.2 0.7-0.2 0.4 0 0.7 0.2 0.3 0.3 0.3 0.7 0 0.5-0.3 0.7-0.3 0.3-0.7 0.3zm2.7 0.5q-0.3 0-0.5-0.2-0.3-0.2-0.3-0.6 0-0.3 0.3-0.5 0.2-0.3 0.5-0.3 0.4 0 0.6 0.3 0.2 0.2 0.2 0.5 0 0.4-0.2 0.6-0.2 0.2-0.6 0.2z"/></svg>