<svg version="1.2" xmlns="http://www.w3.org/2000/svg" viewBox="0 0 12 12" width="12" height="12"><style>.a{fill:#86868b}</style><filter id="f0"><feFlood flood-color="#ffffff" flood-opacity="1" /><feBlend mode="normal" in2="SourceGraphic"/><feComposite in2="SourceAlpha" operator="in" /></filter><g filter="url(#f0)"><path class="a" d="m3.7 4.4v2.7h-1.1q-0.6 0-1.1 0.3-0.5 0.3-0.8 0.8-0.2 0.4-0.2 1 0 0.6 0.2 1.1 0.3 0.4 0.8 0.7 0.5 0.3 1.1 0.3 0.5 0 1-0.3 0.5-0.3 0.8-0.7 0.2-0.5 0.2-1.1v-1.2h2.8v1.2q0 0.6 0.2 1.1 0.3 0.4 0.8 0.7 0.5 0.3 1 0.3 0.6 0 1.1-0.3 0.5-0.3 0.8-0.7 0.2-0.5 0.2-1.1 0-0.6-0.2-1-0.3-0.5-0.8-0.8-0.5-0.3-1.1-0.3h-1.1v-2.7h1.1q0.6 0 1.1-0.3 0.5-0.2 0.8-0.7 0.2-0.5 0.2-1.1 0-0.5-0.2-1-0.3-0.5-0.8-0.8-0.5-0.3-1.1-0.3-0.5 0-1 0.3-0.5 0.3-0.8 0.8-0.2 0.5-0.2 1v1.2h-2.8v-1.2q0-0.5-0.2-1-0.3-0.5-0.8-0.8-0.5-0.3-1-0.3-0.6 0-1.1 0.3-0.5 0.3-0.8 0.8-0.2 0.5-0.2 1 0 0.6 0.2 1.1 0.3 0.5 0.8 0.7 0.5 0.3 1.1 0.3zm-1.2-0.9q-0.3 0-0.6-0.1-0.3-0.2-0.4-0.5-0.2-0.2-0.2-0.6 0-0.3 0.2-0.6 0.1-0.2 0.4-0.4 0.3-0.2 0.6-0.2 0.3 0 0.6 0.2 0.2 0.2 0.4 0.4 0.2 0.3 0.2 0.6v1.2zm6.8 0h-1.1v-1.2q0-0.3 0.1-0.6 0.2-0.2 0.5-0.4 0.2-0.2 0.5-0.2 0.4 0 0.6 0.2 0.3 0.2 0.5 0.4 0.1 0.3 0.1 0.6 0 0.4-0.1 0.6-0.2 0.3-0.5 0.5-0.2 0.1-0.6 0.1zm-4.8 3.7v-2.8h2.8v2.8zm-2.1 0.8h1.1v1.2q0 0.3-0.1 0.6-0.2 0.3-0.5 0.4-0.2 0.2-0.5 0.2-0.4 0-0.6-0.2-0.3-0.1-0.5-0.4-0.1-0.3-0.1-0.6 0-0.3 0.1-0.6 0.2-0.3 0.5-0.4 0.2-0.2 0.6-0.2zm6.8 0q0.4 0 0.6 0.2 0.3 0.1 0.5 0.4 0.1 0.3 0.1 0.6 0 0.3-0.1 0.6-0.2 0.3-0.5 0.4-0.2 0.2-0.6 0.2-0.3 0-0.5-0.2-0.3-0.1-0.5-0.4-0.1-0.3-0.1-0.6v-1.2z"/></g></svg>