<svg width="18" height="19" viewBox="0 0 18 19" fill="none" xmlns="http://www.w3.org/2000/svg">
<path fill-rule="evenodd" clip-rule="evenodd" d="M1.5 6.00195C0.671573 6.00195 0 6.67353 0 7.50195V16.502C0 17.3304 0.671573 18.002 1.5 18.002H16.5C17.3284 18.002 18 17.3304 18 16.502V7.50195C18 6.67353 17.3284 6.00195 16.5 6.00195H1.5ZM7.12562 10.1271C7.12562 9.55121 7.74773 9.19019 8.24772 9.4759L11.236 11.1835C11.7399 11.4714 11.7399 12.198 11.236 12.4859L8.24772 14.1935C7.74773 14.4792 7.12562 14.1182 7.12562 13.5423V10.1271Z" fill="#999999"/>
<rect x="0.75" y="2.99805" width="16.5" height="1.5" rx="0.75" fill="#999999"/>
<rect x="1.5" width="15" height="1.5" rx="0.75" fill="#999999"/>
</svg>
