<svg width="16" height="16" viewBox="0 0 16 16" fill="none" xmlns="http://www.w3.org/2000/svg">
<path fill-rule="evenodd" clip-rule="evenodd" d="M7.50693 2.46102C7.80587 2.58484 8.00078 2.87655 8.00078 3.20012V12.8001C8.00078 13.1237 7.80587 13.4154 7.50693 13.5392C7.20799 13.6631 6.86389 13.5946 6.6351 13.3658L3.66941 10.4001H1.60078C1.15895 10.4001 0.800781 10.0419 0.800781 9.60012V6.40012C0.800781 5.95829 1.15895 5.60012 1.60078 5.60012H3.66941L6.6351 2.63444C6.86389 2.40564 7.20799 2.33719 7.50693 2.46102Z" fill="#9A9999"/>
<path fill-rule="evenodd" clip-rule="evenodd" d="M11.7263 2.3432C12.0387 2.03078 12.5452 2.03078 12.8576 2.3432C14.3045 3.79004 15.2008 5.79114 15.2008 8.00006C15.2008 10.209 14.3045 12.2101 12.8576 13.6569C12.5452 13.9693 12.0387 13.9693 11.7263 13.6569C11.4138 13.3445 11.4138 12.838 11.7263 12.5255C12.8853 11.3665 13.6008 9.76759 13.6008 8.00006C13.6008 6.23252 12.8853 4.63362 11.7263 3.47457C11.4138 3.16215 11.4138 2.65562 11.7263 2.3432ZM9.46351 4.60594C9.77593 4.29352 10.2825 4.29352 10.5949 4.60594C11.0156 5.02665 11.3589 5.52559 11.601 6.07976C11.8584 6.66883 12.0008 7.31887 12.0008 8.00006C12.0008 9.32532 11.4626 10.5264 10.5949 11.3942C10.2825 11.7066 9.77593 11.7066 9.46351 11.3942C9.15109 11.0817 9.15109 10.5752 9.46351 10.2628C10.0435 9.68284 10.4008 8.88393 10.4008 8.00006C10.4008 7.54347 10.3056 7.11122 10.1349 6.72035C9.97381 6.35176 9.74491 6.01871 9.46351 5.73731C9.15109 5.42489 9.15109 4.91836 9.46351 4.60594Z" fill="#9A9999"/>
</svg>
