<svg width="16" height="16" viewBox="0 0 16 16" fill="none" xmlns="http://www.w3.org/2000/svg">
<path fill-rule="evenodd" clip-rule="evenodd" d="M7.50693 2.46082C7.80587 2.58465 8.00078 2.87636 8.00078 3.19993V12.7999C8.00078 13.1235 7.80587 13.4152 7.50693 13.539C7.20799 13.6629 6.86389 13.5944 6.6351 13.3656L3.66941 10.3999H1.60078C1.15895 10.3999 0.800781 10.0418 0.800781 9.59993V6.39993C0.800781 5.9581 1.15895 5.59993 1.60078 5.59993H3.66941L6.6351 2.63424C6.86389 2.40544 7.20799 2.337 7.50693 2.46082Z" fill="#9A9999"/>
<path fill-rule="evenodd" clip-rule="evenodd" d="M9.8351 5.83422C10.1475 5.5218 10.654 5.5218 10.9665 5.83422L12.0008 6.86853L13.0351 5.83422C13.3475 5.5218 13.854 5.5218 14.1665 5.83422C14.4789 6.14664 14.4789 6.65317 14.1665 6.96559L13.1322 7.9999L14.1665 9.03422C14.4789 9.34664 14.4789 9.85317 14.1665 10.1656C13.854 10.478 13.3475 10.478 13.0351 10.1656L12.0008 9.13127L10.9665 10.1656C10.654 10.478 10.1475 10.478 9.8351 10.1656C9.52268 9.85317 9.52268 9.34664 9.8351 9.03422L10.8694 7.9999L9.8351 6.96559C9.52268 6.65317 9.52268 6.14664 9.8351 5.83422Z" fill="#9A9999"/>
</svg>
