<svg version="1.2" xmlns="http://www.w3.org/2000/svg" viewBox="0 0 12 13" width="12" height="13"><style>.a{fill:#86868b}</style><filter id="f0"><feFlood flood-color="#ffffff" flood-opacity="1" /><feBlend mode="normal" in2="SourceGraphic"/><feComposite in2="SourceAlpha" operator="in" /></filter><g filter="url(#f0)"><path class="a" d="m1.9 12.2h6.9q0.8 0 1.2-0.5 0.5-0.5 0.5-1.4v-6.2l-1 0.9v5.3q0 0.4-0.2 0.7-0.2 0.2-0.5 0.2h-6.8q-0.5 0-0.7-0.2-0.3-0.3-0.3-0.7v-6.7q0-0.4 0.3-0.7 0.2-0.2 0.7-0.2h5.3l0.9-0.9h-6.3q-0.9 0-1.3 0.4-0.5 0.5-0.5 1.4v6.7q0 0.9 0.5 1.4 0.4 0.5 1.3 0.5zm2.2-3.8l1.1-0.5 5.5-5.5-0.8-0.8-5.5 5.5-0.5 1.1q0 0 0 0.1 0.1 0.1 0.2 0.1zm7-6.4l0.4-0.5q0.2-0.1 0.2-0.3 0-0.2-0.2-0.4l-0.1-0.1q-0.1-0.1-0.3-0.1-0.2 0-0.4 0.1l-0.4 0.5z"/></g></svg>